<svg width="50" height="50" viewBox="0 0 50 50" fill="none" xmlns="http://www.w3.org/2000/svg">
<rect width="50" height="50" rx="25" fill="white"/>
<path d="M34.2805 31.7359C33.7752 30.5391 33.0419 29.4519 32.1216 28.535C31.204 27.6155 30.117 26.8824 28.9207 26.3761C28.9099 26.3708 28.8992 26.3681 28.8885 26.3627C30.5573 25.1574 31.6421 23.194 31.6421 20.9788C31.6421 17.3092 28.6689 14.3359 24.9992 14.3359C21.3296 14.3359 18.3564 17.3092 18.3564 20.9788C18.3564 23.194 19.4412 25.1574 21.1099 26.3654C21.0992 26.3708 21.0885 26.3734 21.0778 26.3788C19.8778 26.885 18.801 27.6109 17.8769 28.5377C16.9574 29.4553 16.2242 30.5423 15.718 31.7386C15.2206 32.9098 14.9524 34.1655 14.9278 35.4377C14.9271 35.4663 14.9321 35.4948 14.9425 35.5214C14.953 35.548 14.9687 35.5723 14.9886 35.5927C15.0086 35.6132 15.0325 35.6295 15.0588 35.6406C15.0852 35.6517 15.1135 35.6574 15.1421 35.6574H16.7492C16.8671 35.6574 16.9608 35.5636 16.9635 35.4484C17.0171 33.3806 17.8474 31.444 19.3153 29.9761C20.8341 28.4574 22.851 27.6217 24.9992 27.6217C27.1474 27.6217 29.1644 28.4574 30.6832 29.9761C32.151 31.444 32.9814 33.3806 33.0349 35.4484C33.0376 35.5663 33.1314 35.6574 33.2492 35.6574H34.8564C34.885 35.6574 34.9133 35.6517 34.9396 35.6406C34.966 35.6295 34.9899 35.6132 35.0098 35.5927C35.0298 35.5723 35.0455 35.548 35.0559 35.5214C35.0664 35.4948 35.0714 35.4663 35.0707 35.4377C35.0439 34.1574 34.7787 32.9118 34.2805 31.7359V31.7359ZM24.9992 25.5859C23.7698 25.5859 22.6126 25.1065 21.7421 24.2359C20.8716 23.3654 20.3921 22.2083 20.3921 20.9788C20.3921 19.7493 20.8716 18.5922 21.7421 17.7217C22.6126 16.8511 23.7698 16.3717 24.9992 16.3717C26.2287 16.3717 27.3858 16.8511 28.2564 17.7217C29.1269 18.5922 29.6064 19.7493 29.6064 20.9788C29.6064 22.2083 29.1269 23.3654 28.2564 24.2359C27.3858 25.1065 26.2287 25.5859 24.9992 25.5859Z" fill="#2E7D32"/>
</svg>
